# xmcd CD database file
#
# Track frame offsets:
#	150
#	24581
#	44223
#	66732
#	85930
#	102240
#	122588
#	140146
#	158472
#	181923
#	203135
#	222489
#	239085
#	258428
#	273204
#
# Disc length: 3950 seconds
#
# Revision: 1
# Processed by: cddbd v1.4PL0 Copyright (c) Steve Scherf et al.
# Submitted via: NeoAudio 9.9.9
#
DISCID=e70f6c0f
DTITLE=Tim McGraw - Tim McGraw and The Dance Hall Docters
DYEAR=1900
DGENRE=Country
TTITLE0=Comfort Me
TTITLE1=Tickin' Away
TTITLE2=Home
TTITLE3=Red Ragtop
TTITLE4=That's Why God Made Mexico
TTITLE5=Watch The Wind Blow By
TTITLE6=Illegal
TTITLE7=Sleep Tonight
TTITLE8=I Know How To Love You Well
TTITLE9=Sing Me Home
TTITLE10=She's My Kind Of Rain
TTITLE11=Who Are They
TTITLE12=Real Good Man
TTITLE13=All We Ever Find
TTITLE14=Tiny Dancer
EXTD=
EXTT0=
EXTT1=
EXTT2=
EXTT3=
EXTT4=
EXTT5=
EXTT6=
EXTT7=
EXTT8=
EXTT9=
EXTT10=
EXTT11=
EXTT12=
EXTT13=
EXTT14=
PLAYORDER=
